# xmcd
#
# Track frame offsets: 
#        150
#        18173
#        34041
#        55462
#        68712
#
# Disc length: 1073 seconds
#
# Revision: 0
# Processed by: cddbd v1.5.2PL0 Copyright (c) Steve Scherf et al.
# Submitted via: ExactAudioCopy v1.0b1
#
DISCID=39042f05
DTITLE=Angela Oliver - Angela Oliver
DYEAR=2009
DGENRE=Country
TTITLE0=I'm Missing You
TTITLE1=Midnite Run
TTITLE2=Long Road Home
TTITLE3=Ghosts In This Town
TTITLE4=Cajun Rain
EXTD=
EXTT0=
EXTT1=
EXTT2=
EXTT3=
EXTT4=
PLAYORDER=
